<svg id="Layer_3_1_" xmlns="http://www.w3.org/2000/svg" width="279.8" height="59.9" viewBox="0 0 279.8 59.9">
  <g id="Group_4" data-name="Group 4">
    <g id="Group_1" data-name="Group 1">
      <path id="Path_1" data-name="Path 1" d="M79.5,30.5A6.054,6.054,0,0,0,77.9,26a5.671,5.671,0,0,0-4.4-1.6,8.823,8.823,0,0,0-6,2.3V46.8a2.106,2.106,0,0,1-.5,1.3,1.9,1.9,0,0,1-1.3.5,2.106,2.106,0,0,1-1.3-.5,1.9,1.9,0,0,1-.5-1.3V12.3a2.106,2.106,0,0,1,.5-1.3,1.9,1.9,0,0,1,1.3-.5A2.106,2.106,0,0,1,67,11a1.9,1.9,0,0,1,.5,1.3V22.7a10.208,10.208,0,0,1,2.9-1.1,11,11,0,0,1,3.1-.4,10.016,10.016,0,0,1,3.9.7,7.912,7.912,0,0,1,3,2A7.415,7.415,0,0,1,82.3,27a10.187,10.187,0,0,1,.7,4V47.2a2.106,2.106,0,0,1-.5,1.3,1.9,1.9,0,0,1-1.3.5,2.106,2.106,0,0,1-1.3-.5,1.9,1.9,0,0,1-.5-1.3V30.5Z" fill="#fff"/>
      <path id="Path_2" data-name="Path 2" d="M91.4,22.9a2.106,2.106,0,0,1,.5-1.3,1.9,1.9,0,0,1,1.3-.5,2.106,2.106,0,0,1,1.3.5,1.9,1.9,0,0,1,.5,1.3v24a2.106,2.106,0,0,1-.5,1.3,1.9,1.9,0,0,1-1.3.5,2.106,2.106,0,0,1-1.3-.5,1.9,1.9,0,0,1-.5-1.3Z" fill="#fff"/>
      <path id="Path_3" data-name="Path 3" d="M118.8,46.9a11.079,11.079,0,0,1-2.9,1.4,10.55,10.55,0,0,1-3.1.4,10.016,10.016,0,0,1-3.9-.7,7.912,7.912,0,0,1-3-2,8.109,8.109,0,0,1-1.9-3.1,10.187,10.187,0,0,1-.7-4V30.7a10.879,10.879,0,0,1,.7-4,9.554,9.554,0,0,1,1.9-3.1,9.268,9.268,0,0,1,3-2,10.016,10.016,0,0,1,3.9-.7,25.952,25.952,0,0,1,4,.3,16.368,16.368,0,0,1,3.8,1,2.73,2.73,0,0,1,1.2.9,2.389,2.389,0,0,1,.5,1.4V50.2a10.879,10.879,0,0,1-.7,4,10.754,10.754,0,0,1-1.9,3.1,7.714,7.714,0,0,1-3,1.9,10.016,10.016,0,0,1-3.9.7,15,15,0,0,1-3.7-.4,35.8,35.8,0,0,1-3.5-1.1,1.543,1.543,0,0,1-1-1.6,1.707,1.707,0,0,1,1.7-1.7,2.544,2.544,0,0,1,.7.2,24.69,24.69,0,0,0,2.9,1,10.323,10.323,0,0,0,3,.4,5.873,5.873,0,0,0,4.4-1.7,6.749,6.749,0,0,0,1.6-4.6l-.1-3.5Zm0-21.6a19.636,19.636,0,0,0-5.9-.9,5.816,5.816,0,0,0-4.4,1.6,5.9,5.9,0,0,0-1.6,4.5v8.7a6.054,6.054,0,0,0,1.6,4.5,5.816,5.816,0,0,0,4.4,1.6,8.662,8.662,0,0,0,3.2-.6,9.482,9.482,0,0,0,2.7-1.7S118.8,25.3,118.8,25.3Z" fill="#fff"/>
      <path id="Path_4" data-name="Path 4" d="M145.6,30.5A6.054,6.054,0,0,0,144,26a5.671,5.671,0,0,0-4.4-1.6,8.823,8.823,0,0,0-6,2.3V46.8a2.106,2.106,0,0,1-.5,1.3,1.9,1.9,0,0,1-1.3.5,2.106,2.106,0,0,1-1.3-.5,1.9,1.9,0,0,1-.5-1.3V12.3a2.106,2.106,0,0,1,.5-1.3,1.9,1.9,0,0,1,1.3-.5,2.106,2.106,0,0,1,1.3.5,1.9,1.9,0,0,1,.5,1.3V22.7a10.208,10.208,0,0,1,2.9-1.1,11,11,0,0,1,3.1-.4,10.016,10.016,0,0,1,3.9.7,7.912,7.912,0,0,1,3,2,7.415,7.415,0,0,1,1.9,3.1,10.187,10.187,0,0,1,.7,4V47.2a2.106,2.106,0,0,1-.5,1.3,1.536,1.536,0,0,1-1.3.5,2.106,2.106,0,0,1-1.3-.5,1.9,1.9,0,0,1-.5-1.3V30.5Z" fill="#fff"/>
      <path id="Path_5" data-name="Path 5" d="M156.9,28.4a8.361,8.361,0,0,1,.5-2.9,8.269,8.269,0,0,1,1.5-2.3,5.745,5.745,0,0,1,2.2-1.5,7.635,7.635,0,0,1,2.7-.5,17.559,17.559,0,0,1,3.8.4,1.7,1.7,0,0,1,1,.6,1.5,1.5,0,0,1,.4,1.1,1.656,1.656,0,0,1-.5,1.2,1.9,1.9,0,0,1-1.3.5.6.6,0,0,1-.4-.1,4.331,4.331,0,0,0-.5-.1c-.4-.1-.8-.1-1.2-.2a5.283,5.283,0,0,0-1.3-.1,2.9,2.9,0,0,0-2.3,1,3.7,3.7,0,0,0-1,2.7V46.9a2.106,2.106,0,0,1-.5,1.3,1.9,1.9,0,0,1-1.3.5,2.106,2.106,0,0,1-1.3-.5,1.535,1.535,0,0,1-.5-1.3V28.4Z" fill="#fff"/>
      <path id="Path_6" data-name="Path 6" d="M190.8,45.1a2.389,2.389,0,0,1-.5,1.4,2.73,2.73,0,0,1-1.2.9c-1.3.4-2.5.7-3.8,1a25.952,25.952,0,0,1-4,.3c-3.2,0-5.6-.7-7.2-2.2a7.753,7.753,0,0,1-2.3-5.9,7.907,7.907,0,0,1,2.3-5.9,7.213,7.213,0,0,1,3-1.6,17.27,17.27,0,0,1,4.2-.5h5.9V29.2a4.466,4.466,0,0,0-1.5-3.6,5.639,5.639,0,0,0-4-1.2,9.887,9.887,0,0,0-3,.4,12.987,12.987,0,0,0-3,1.3,1.6,1.6,0,0,1-.8.3,2.01,2.01,0,0,1-1.3-.4,1.656,1.656,0,0,1-.5-1.2,1.8,1.8,0,0,1,.9-1.6,11.432,11.432,0,0,1,3.8-1.6,17.373,17.373,0,0,1,3.9-.5,13.449,13.449,0,0,1,3.5.5,7.3,7.3,0,0,1,2.9,1.5,8.181,8.181,0,0,1,2,2.5,7.709,7.709,0,0,1,.7,3.6V45.1Zm-3.5-9.2h-5.9a9.6,9.6,0,0,0-3.2.4,3.956,3.956,0,0,0-1.8,1.1,3.147,3.147,0,0,0-.8,1.5,8.752,8.752,0,0,0-.2,1.6,8.753,8.753,0,0,0,.2,1.6,2.751,2.751,0,0,0,.8,1.5,3.956,3.956,0,0,0,1.8,1.1,9.6,9.6,0,0,0,3.2.4,19.635,19.635,0,0,0,5.9-.9Z" fill="#fff"/>
      <path id="Path_7" data-name="Path 7" d="M208.1,48.7a10.016,10.016,0,0,1-3.9-.7,7.912,7.912,0,0,1-3-2,7.415,7.415,0,0,1-1.9-3.1,10.187,10.187,0,0,1-.7-4V30.7a10,10,0,0,1,2.6-7.1,9.353,9.353,0,0,1,6.9-2.6,10.55,10.55,0,0,1,3.1.4,24.883,24.883,0,0,1,2.9,1.1V12.3a2.106,2.106,0,0,1,.5-1.3,1.9,1.9,0,0,1,1.3-.5,2.106,2.106,0,0,1,1.3.5,1.9,1.9,0,0,1,.5,1.3V45a2.389,2.389,0,0,1-.5,1.4,2.73,2.73,0,0,1-1.2.9c-1.3.4-2.5.7-3.8,1A19,19,0,0,1,208.1,48.7Zm-6-9.4a6.054,6.054,0,0,0,1.6,4.5,5.671,5.671,0,0,0,4.4,1.6,20.288,20.288,0,0,0,6-.9v-18a6.056,6.056,0,0,0-2.8-1.6,11.27,11.27,0,0,0-3.2-.5,5.816,5.816,0,0,0-4.4,1.6,6.31,6.31,0,0,0-1.6,4.5Z" fill="#fff"/>
      <path id="Path_8" data-name="Path 8" d="M226,22.9a2.106,2.106,0,0,1,.5-1.3,1.9,1.9,0,0,1,1.3-.5,2.106,2.106,0,0,1,1.3.5,1.9,1.9,0,0,1,.5,1.3v24a2.106,2.106,0,0,1-.5,1.3,1.9,1.9,0,0,1-1.3.5,2.106,2.106,0,0,1-1.3-.5,1.9,1.9,0,0,1-.5-1.3ZM93.2,17.2a2.56,2.56,0,0,1-1.9-.8,2.732,2.732,0,0,1-.8-1.9,2.56,2.56,0,0,1,.8-1.9,2.732,2.732,0,0,1,1.9-.8,2.56,2.56,0,0,1,1.9.8,2.732,2.732,0,0,1,.8,1.9,2.56,2.56,0,0,1-.8,1.9A2.732,2.732,0,0,1,93.2,17.2Z" fill="#fff"/>
      <path id="Path_9" data-name="Path 9" d="M253.4,22.9a2.106,2.106,0,0,1,.5-1.3,1.9,1.9,0,0,1,1.3-.5,2.106,2.106,0,0,1,1.3.5,1.9,1.9,0,0,1,.5,1.3V45.1a2.3,2.3,0,0,1-.4,1.4,2.73,2.73,0,0,1-1.2.9c-1.3.4-2.5.7-3.9,1a26.929,26.929,0,0,1-4,.3,9.434,9.434,0,0,1-7-2.6,9.675,9.675,0,0,1-2.6-7.1V22.9a2.106,2.106,0,0,1,.5-1.3,1.9,1.9,0,0,1,1.3-.5,2.106,2.106,0,0,1,1.3.5,1.9,1.9,0,0,1,.5,1.3V39.3a6.054,6.054,0,0,0,1.6,4.5,5.816,5.816,0,0,0,4.4,1.6,19.635,19.635,0,0,0,5.9-.9V22.9Z" fill="#fff"/>
      <path id="Path_10" data-name="Path 10" d="M268.1,35a9.017,9.017,0,0,1-3.2-2.3,6.445,6.445,0,0,1-1.4-4.4,5.426,5.426,0,0,1,.7-2.9,7.871,7.871,0,0,1,1.8-2.2,8.67,8.67,0,0,1,2.7-1.4,11.419,11.419,0,0,1,3.3-.5,12.941,12.941,0,0,1,3.5.4,24.575,24.575,0,0,1,2.9.9,1.751,1.751,0,0,1,1.1,1.7,1.656,1.656,0,0,1-.5,1.2,1.844,1.844,0,0,1-1.3.4,2.544,2.544,0,0,1-.7-.2,11.871,11.871,0,0,0-5.4-1.1,9.971,9.971,0,0,0-1.6.2,3.506,3.506,0,0,0-1.4.6,5.731,5.731,0,0,0-1.1,1.1,3.064,3.064,0,0,0-.4,1.7,3.244,3.244,0,0,0,.9,2.4,5.347,5.347,0,0,0,1.7,1.2l4.9,2a8.81,8.81,0,0,1,3.8,2.7,6.368,6.368,0,0,1,1.4,4.3,8.149,8.149,0,0,1-.6,3.1,7.385,7.385,0,0,1-1.7,2.5,7.179,7.179,0,0,1-2.7,1.6,8.808,8.808,0,0,1-3.3.6,13.991,13.991,0,0,1-3.7-.4,17.26,17.26,0,0,1-3.2-1.1,1.624,1.624,0,0,1-1-1.6,1.656,1.656,0,0,1,.5-1.2,1.9,1.9,0,0,1,1.3-.5.6.6,0,0,1,.4.1c.1,0,.2.1.4.2a11.422,11.422,0,0,0,2.6.9,13.523,13.523,0,0,0,2.9.4,5.086,5.086,0,0,0,3.2-1,3.368,3.368,0,0,0,1.4-2.8,4.033,4.033,0,0,0-.8-2.6,7.247,7.247,0,0,0-2.5-1.7Z" fill="#fff"/>
    </g>
    <path id="Path_11" data-name="Path 11" d="M227.5,17.2a2.56,2.56,0,0,1-1.9-.8,2.732,2.732,0,0,1-.8-1.9,2.56,2.56,0,0,1,.8-1.9,2.732,2.732,0,0,1,1.9-.8,2.56,2.56,0,0,1,1.9.8,2.732,2.732,0,0,1,.8,1.9,2.732,2.732,0,0,1-2.7,2.7Z" fill="#fff"/>
    <g id="Group_3" data-name="Group 3">
      <g id="Group_2" data-name="Group 2">
        <path id="Path_302_1_" d="M41.9,53.1a26.87,26.87,0,0,1-16.4-6.2A30.408,30.408,0,0,0,46.1,31a27.842,27.842,0,0,1,2.2,11.1,28.558,28.558,0,0,1-.6,5.8l-.6,2.8A23.4,23.4,0,0,1,44,53.1Z" fill="#fff"/>
        <path id="Path_303_1_" d="M27.6,58a25.912,25.912,0,0,1-6.8-.9A28.036,28.036,0,0,1,0,33.7a13.606,13.606,0,0,0,.7-1.8,4.714,4.714,0,0,1,.6-1.5A23.908,23.908,0,0,1,14.7,16.8,27.179,27.179,0,0,0,12.3,28c0,14.2,10.5,25.8,24.8,28.5A30.45,30.45,0,0,1,27.6,58Z" fill="#fff"/>
      </g>
      <path id="Path_12" data-name="Path 12" d="M.7,22.8A27.786,27.786,0,0,1,18.2,11.2a23.933,23.933,0,0,1,5.3-.6A28.209,28.209,0,0,1,47.6,24.8,32.6,32.6,0,0,1,52,41.5v2.2a30.168,30.168,0,0,0,4.4-15.2A28.555,28.555,0,0,0,28.2,0,28.354,28.354,0,0,0,4.6,12.8C4.5,12.8,1.1,18.2.7,22.8Z" fill="#fff"/>
    </g>
  </g>
</svg>
